
<global>
amp_veltrack=0
ampeg_release=0.65
</global>

<group>
group_label=PP
lpc_hicc1=42
lpc_locc1=0

<region>
end=240000
hikey=A3
hivel=127
lokey=G#3
lovel=0
lpc=Y52WQ9kLJMQRw41DJEWZQk/9kEJ+GlbBW/0ewiEWhMDWn8fBnOy0wbiH/kCJrHTAbbYsQedbrUHy8eHAimUhQaeqskA8jJzB5qCHvivEDkFDBubA+i0rvvVIRsFjNlRB
lpc_rms=-39.53
offset=14351
pitch_keycenter=G#3
sample=Basstrombone_full_PP_G#4.opus
tune=-16
</region>

<region>
end=240000
hikey=A2
hivel=127
lokey=G#2
lovel=0
lpc=RJJtQ4fAFsR68dVDfRuxwnl3CEMe57rCUorGwWutN0Fb3hbBxGVMwRHPy0GEgczB88E9QZpdxkGvNcXB1/wXQUWyKkHwcZzBXiAHQD5XTkHXUjzB+oKhQD6X18DtPp1A
lpc_rms=-44.30
offset=13734
pitch_keycenter=G#2
sample=Basstrombone_full_PP_G#3.opus
tune=-28
</region>

<region>
end=240000
hikey=A1
hivel=127
lokey=G#1
lovel=0
lpc=AXgaQ/X3msPeRd1C7RsgQn9T7kEKK6i+efUTwT+/8cARJIrAUmeGwHyEjcDRi+G/roFQP1u6VEDIotY/7A39PxDCOkDmLl0/aHpRv2+WDL/aBne+vINdwEL34MBYqgBB
lpc_rms=-48.77
offset=15205
pitch_keycenter=G#1
sample=Basstrombone_full_PP_G#2.opus
tune=-16
</region>

<region>
end=240000
hikey=G3
hivel=127
lokey=F#3
lovel=0
lpc=7QohQ98cksOXAIpCF1wqQqKh50GDJlBBg9ivPyVWOsBVivvAvp4XwZX7vsBPHazAgH0KwHyg8D/Z6AdApbdtQKWOmUBF1RRAIqoRQCwZuz//HDjAfDSzwJIIAMF69A1B
lpc_rms=-43.25
offset=13144
pitch_keycenter=F#3
sample=Basstrombone_full_PP_F#4.opus
tune=-46
</region>

<region>
end=240000
hikey=G2
hivel=127
lokey=F#2
lovel=0
lpc=TI0QQzUonMMdjwlDcWAaQqDP0EELjzXBhpiDwfx5nb+DdNDAIG2QwGsm+T/z4C7Aqy4jQNX8vUDq3nHAE5UrQGgukkBJSr7AP4uLP0WehkA7ugPApkkjwGsdq8BvkbNA
lpc_rms=-47.42
offset=13737
pitch_keycenter=F#2
sample=Basstrombone_full_PP_F#3.opus
tune=-44
</region>

<region>
end=240000
hikey=G1
hivel=127
lokey=F#1
lovel=0
lpc=3XjWQivGgMMq4S1DYLvGwQL07UF0ZAPCnhnaP4lYAkE0jv8/vesYwFsqUsGYe1c/uRzRQJOxyj9nTZW/jUhdQL6zbr/Pww/A8uoIPZ8mbr8XOx5AMgyLv9zdpL84m40/
lpc_rms=-50.88
offset=12451
pitch_keycenter=F#1
sample=Basstrombone_full_PP_F#2.opus
tune=-16
</region>

<region>
end=240000
hikey=F3
hivel=127
lokey=E3
lovel=0
lpc=RJ94Q6+HFsTPl7lD1uARwnDaAkOwpYHCyutgwoi5NEHM4YTBXzCAwagKu0EmtSDAE9w0QaoorEH317jB9s3QQHurJEAdzpLBARg8QIOaDUHqm+XA/NOcQGRDW0Bi1FXA
lpc_rms=-43.67
offset=12133
pitch_keycenter=E3
sample=Basstrombone_full_PP_E4.opus
tune=-22
</region>

<region>
end=240000
hikey=F2
hivel=127
lokey=E2
lovel=0
lpc=OvMwQycH0cNEtXlDkps3wFwNRELzODLCXMhDwSFo4EBvFj7AdVqGwGdOhcCXxEXAN4sfQbZxgECue6DAOvKfQPYPlL+8TgTBy08DQKQP70CyBM8+OWsHwKf+F8EbsORA
lpc_rms=-47.75
offset=12262
pitch_keycenter=E2
sample=Basstrombone_full_PP_E3.opus
tune=-11
</region>

<region>
end=240000
hikey=F1
hivel=127
lokey=A#0
lovel=0
lpc=z7nkQq1hdMPgXN9CrAe/QQaOekErOCfBJkrAwOTZAkANNpq/q6WYwO0bzcAk9fi/S80VQNw3ikCGjSFAtRQzQH0MKT7LLWzAEIXXv/ZGcD80r6s/omTtvmgcIcCENf0/
lpc_rms=-50.58
offset=17171
pitch_keycenter=E1
sample=Basstrombone_full_PP_E2.opus
tune=-26
</region>

<region>
end=240000
hikey=D#3
hivel=127
lokey=D3
lovel=0
lpc=tPYLQwIzfMPSuGhCsF8SQkHvzEGl6jRBUBBfPgdVQcCHj9HA2qX+wNoSqMBTuVnAkjaDv/B42T9yzTZA8ZUwQLNBP0BX2pc/yKsJvjV6ub7A876/HOwZwFjABsComEZA
lpc_rms=-44.84
offset=12129
pitch_keycenter=D3
sample=Basstrombone_full_PP_D4.opus
tune=-16
</region>

<region>
end=240000
hikey=D#2
hivel=127
lokey=D2
lovel=0
lpc=RE0cQ5M+tMMD0T5Dqfz4QcorzUG7vrXBzvhtwWhSqsAj8uDAqzSmwO5LQUDcs/BA+UmxQNYMWMCtOfs/7sANQAq/p8By5sC/FJS2P4MOej/f5QBAOBhxPtcGAMGZoqxA
lpc_rms=-47.77
offset=13426
pitch_keycenter=D2
sample=Basstrombone_full_PP_D3.opus
tune=-4
</region>

<region>
end=240000
hikey=C#3
hivel=127
lokey=C3
lovel=0
lpc=wWJjQ87DBsS4yplDclCHQWmXf0JqeyTCCQ8Nwoa8j0Ce8CnBdBxSwZk53EAvuzDA0xNoQSVqX0ECNifBxYrVQB0soj7yXYHBHIfnvxDIOkH3ItU+H6quwOhCg79UFUVA
lpc_rms=-44.20
offset=14383
pitch_keycenter=C3
sample=Basstrombone_full_PP_C4.opus
tune=-9
</region>

<region>
end=240000
hikey=C#2
hivel=127
lokey=C2
lovel=0
lpc=7fFEQ7To6MNjiYNDe0K2QQYtSEJOijbCS3SKwRy6FcEqxbU+uYYEvyFjj8Atlyk/gPX3QBMfwkAZRJk/iZqtPe4nwr+iygzBtTcYQJJ9tUACX3G9xsm5v65K68BuqLpA
lpc_rms=-47.45
offset=11713
pitch_keycenter=C2
sample=Basstrombone_full_PP_C3.opus
tune=-13
</region>

<region>
end=240000
hikey=D#5
hivel=127
lokey=A#3
lovel=0
lpc=oX08Q0iw7cN7qblDPbksw7kUWEPzz+HCLdMcwmQirkFrMFrANDxbQGVMYUGmxBLCVpgMQkVoTEEfCRnCFVyHQToQFkFlo/3BtrB0QcDsWkHCl9lAsTwdwXykfMEMHjNB
lpc_rms=-44.65
offset=12170
pitch_keycenter=A#3
sample=Basstrombone_full_PP_A#4.opus
tune=+3
</region>

<region>
end=240000
hikey=B2
hivel=127
lokey=A#2
lovel=0
lpc=PV0CQzlMmMMakT5D70z7waYeZ0KFq/LBpgqawRrjdUHeAyDAJkpYwcbu4EDiitLAMOhLQDm/FUHkEiPBvmyCQIqOIkH49xjBv0ltwP9VB0FBGsXApiKwP5x30z7IE4u9
lpc_rms=-49.77
offset=11797
pitch_keycenter=A#2
sample=Basstrombone_full_PP_A#3.opus
tune=-8
</region>

<region>
end=240000
hikey=B1
hivel=127
lokey=A#1
lovel=0
lpc=snYFQ8k9nMPK/EFDNf7cwRQWbEIfaxjCQyvTwAIII8DXhMNAS32xwCRqgsB/l97AshsaQd0u8UDvttjAC8nTQFUFisAxhbfA2ovQQH4OR0CooFvAztkEwK3kcMAkUZJA
lpc_rms=-50.34
offset=17852
pitch_keycenter=A#1
sample=Basstrombone_full_PP_A#2.opus
tune=-1
</region>
</group>

<group>
group_label=MF
lpc_hicc1=84
lpc_locc1=43

<region>
end=240000
hikey=A3
hivel=127
lokey=G#3
lovel=0
lpc=gPQpQyBLDsQmjDJEqVjlw62xpkMO0rvDseZrQw5sPcKRL8VBYcp1wv2OaUKSZZLBLkQMwsBtckI5EJDCCkGTQh0bN8IN2StCBCh1wvuR20H1WstBjWb0wdvIF0Fp0lK+
lpc_rms=-32.93
offset=12167
pitch_keycenter=G#3
sample=Basstrombone_full_MF_G#4.opus
tune=-21
</region>

<region>
end=240000
hikey=A2
hivel=127
lokey=G#2
lovel=0
lpc=Xo0/Q7NnGsT/sy5EG9ytw8BGg0Mlj7rDDpxVQxGKM8IO34NC7up+wrSfQ0GiyjxBWdrOwUIqD0KcgijChKYTQmv7Q8FDmlJBKLIkwjuS4UFqHIlBnUPJwchKpEDiOdc/
lpc_rms=-36.01
offset=13798
pitch_keycenter=G#2
sample=Basstrombone_full_MF_G#3.opus
tune=-22
</region>

<region>
end=240000
hikey=A1
hivel=127
lokey=G#1
lovel=0
lpc=5DT1Qsb8msNhbkxDiyOIQRrP40AavhHCg+G2wakKKUHfHfZARZlFwJx1mkCP4+E/Q00bwPDPFD2Jhf6/hu79P5Vft755Tb6/e0blPhq5B0D3uD8/Tg7XvyyLIcBeyQxA
lpc_rms=-42.20
offset=18041
pitch_keycenter=G#1
sample=Basstrombone_full_MF_G#2.opus
tune=-11
</region>

<region>
end=240000
hikey=G3
hivel=127
lokey=F#3
lovel=0
lpc=5x/RQikqccOgxPpClKYhQoH30DuTcpTBLiJowWZqO8BlMt0+eRs6QLcbi0DKIjk/3xNEP9bjJED6Wt+/nJCOwHvrg7+bX+Y/frw3PwsdHj++lZ0/XYLsPgCaCcBCLtQ+
lpc_rms=-34.90
offset=12102
pitch_keycenter=F#3
sample=Basstrombone_full_MF_F#4.opus
tune=-34
</region>

<region>
end=240000
hikey=G2
hivel=127
lokey=F#2
lovel=0
lpc=4EjtQqM0jcMpxhxD0e80Qo5rX8BCt8HBMvKSwYRJhMB6+5RAA+L4QFDVl0AjIMa9zI1JwLcHN8AEI6W/rrK4P11tMkABVhw/uIp9v8Wxkz0rXoy/oMkZvxx2Rj/UR1c+
lpc_rms=-38.28
offset=11484
pitch_keycenter=F#2
sample=Basstrombone_full_MF_F#3.opus
tune=-25
</region>

<region>
end=240000
hikey=G1
hivel=127
lokey=F#1
lovel=0
lpc=MQ2iQhKXU8PBNSZDEgbywZEjxEERswTC3fmMwTB460Hzvl3ANnEMwdmlqUDMcgvBRwVJQbsB1T4VqDvBGYgcQf3FicDda5q9SRR1P2E/f78qMy1AG6oyPTr+b8BiOwNA
lpc_rms=-45.51
offset=14915
pitch_keycenter=F#1
sample=Basstrombone_full_MF_F#2.opus
tune=-15
</region>

<region>
end=240000
hikey=F3
hivel=127
lokey=E3
lovel=0
lpc=OCsdQ3W15sMGNuJDAZI0wx/jA0P15R/DRhB+QoAog8GGL6tB9zgFwZs00UCkFqTAaLldwTlP8EEpubXB55cTQLg2AEAKijdBsZGrwZ4Qp0G4dBLBpk2FwLxZmEALBRS/
lpc_rms=-35.89
offset=11563
pitch_keycenter=E3
sample=Basstrombone_full_MF_E4.opus
tune=-14
</region>

<region>
end=240000
hikey=F2
hivel=127
lokey=E2
lovel=0
lpc=QImHQl4IK8OZAelC3UyBQeTKhcH7QY3BA95cwEbAukDZZp1A3sCIPy0alb+THBrA8wIuvyuaYD9PaYE+ZqqIP7rtJD8znI6/4pgJv/mrBD6Hdp69cv2HPhCPPj8K9zS/
lpc_rms=-42.60
offset=14774
pitch_keycenter=E2
sample=Basstrombone_full_MF_E3.opus
tune=-12
</region>

<region>
end=240000
hikey=F1
hivel=127
lokey=A#0
lovel=0
lpc=jpLQQrW0gcMbXi1Dgz2vQB3jI0Cz/bDBJldRwafaFEHMu1XAwoqMwOj5KUHAzIa/uS2jv+qEd0BoJaHAfXDBvidf4T+KTSXAY5NMPyM5GUCn16g/Vj+Gvt8Nt8DuBnJA
lpc_rms=-44.63
offset=13525
pitch_keycenter=E1
sample=Basstrombone_full_MF_E2.opus
tune=-9
</region>

<region>
end=240000
hikey=D#3
hivel=127
lokey=D3
lovel=0
lpc=gfsZQ2U33sMCjbpD8v91P21yO8KSypfCLbDrvwASFUKOt5xBByh8PrjUs8BocZvBsAJkwIRSakE4GHfAv48VQQkWBD4c2jzBjyA2wCE/BEEeFmVAyKZHwO4pXsD3hANA
lpc_rms=-35.28
offset=14541
pitch_keycenter=D3
sample=Basstrombone_full_MF_D4.opus
tune=-13
</region>

<region>
end=240000
hikey=D#2
hivel=127
lokey=D2
lovel=0
lpc=9sIMQ5N60cOcOMpDF/O9wgJQbsGeuRzCHG31QH+clUHHux/ASBdUv4+BOUES1WrB5UKMwKsNKUGV5+PAEfoeQdI8wr8v1B7B2rGlQPETO0C7MsLA9PAjQX2CJcHaWYBA
lpc_rms=-41.41
offset=12840
pitch_keycenter=D2
sample=Basstrombone_full_MF_D3.opus
tune=-3
</region>

<region>
end=240000
hikey=C#3
hivel=127
lokey=C3
lovel=0
lpc=wmMZQ0BYx8OFFIdDz4xPQjBgFsJ04knCO6GMwZF1cEE236ZBIlrZQEeM1MCIDS3Bg01OwFk8xEDqjIdAvxwfQD8bJcCVh83A5uDVv3VyqEACLABBrUUjPlwQhMH2thJB
lpc_rms=-34.60
offset=13263
pitch_keycenter=C3
sample=Basstrombone_full_MF_C4.opus
tune=-8
</region>

<region>
end=240000
hikey=C#2
hivel=127
lokey=C2
lovel=0
lpc=wGzyQsMfwsPuH95Dhe8vw3xsscFAt7hAikeTQYUMKEF35YLBd9BPwEaa+EDyAtu/zTVVQE9dW8CxLJPA3wcIQcYDtD4ttPnArNxdQOcl/T5CReA/tAz8v92MRD7eon0+
lpc_rms=-42.29
offset=14628
pitch_keycenter=C2
sample=Basstrombone_full_MF_C3.opus
tune=+4
</region>

<region>
end=240000
hikey=D#5
hivel=127
lokey=A#3
lovel=0
lpc=DHsbQxQV9sMryRFE49/Dw7KspUORaqbDSTR4Q8uVNsOuJQNDgruzwseSE0LbKhxC/hJ1wmOEpEKS3f7CVvvcQmvLkcI20KJCp6uuwl8xgEI6MjfCfEQVQoJ9rMF6PLZA
lpc_rms=-34.20
offset=12603
pitch_keycenter=A#3
sample=Basstrombone_full_MF_A#4.opus
tune=-3
</region>

<region>
end=240000
hikey=B2
hivel=127
lokey=A#2
lovel=0
lpc=fKgaQ/Pc0sPjBaNDmGt2v1UsUcFTkXLCATZXP+YBs7/LwvlAO9xuQROftED+QufAWhV/wOFURUAoxPjAcNXWv+luWkCzvhdBSMyxwI76i8DaRxZBXSpPwOIL9MCQQKlA
lpc_rms=-36.50
offset=12926
pitch_keycenter=A#2
sample=Basstrombone_full_MF_A#3.opus
tune=-6
</region>

<region>
end=240000
hikey=B1
hivel=127
lokey=A#1
lovel=0
lpc=vdroQry0lMP6cU1D3QFoQdMfK8EVPeXBcsJFwTIvAkFYenJAra8FPw8bSkC89yk/qvMJwBv0pb+viOK/r6tcQBcfoz+N6pe/DR19v433Cj9NRAk/oPClv9UX5754458/
lpc_rms=-41.66
offset=14503
pitch_keycenter=A#1
sample=Basstrombone_full_MF_A#2.opus
tune=-2
</region>
</group>

<group>
group_label=FF
lpc_hicc1=127
lpc_locc1=85

<region>
end=240000
hikey=A3
hivel=127
lokey=G#3
lovel=0
lpc=Q9KoQXR2hsJvGMNCtOKywk6FeUIxDBHCJKiCQQBBmsD1Wcc/Pz3Uv5D5vT+Z56y+5H9xvkWUtr4wwjy9kwoPQJkIecDXaKRAtC7bwBDvzUAvdwbANFLdv2JJ0z/H7V6+
lpc_rms=-28.47
offset=12876
pitch_keycenter=G#3
sample=Basstrombone_full_FF_G#4.opus
tune=-4
</region>

<region>
end=240000
hikey=A2
hivel=127
lokey=G#2
lovel=0
lpc=/SvRQQXTmsL3ZcFCqHaJwpsC/kGkBwPB3YEvwMdBuEDO2l7AWUF+Pu8STT7a1Q0/dY44OjHsVr/ruB0/bLtAP3eUk79ITuu+PCIsQEXDDMBFh5q/W5KBQMNEZsBjkJw/
lpc_rms=-29.91
offset=1280
pitch_keycenter=G#2
sample=Basstrombone_full_FF_G#3.opus
tune=+4
</region>

<region>
end=240000
hikey=A1
hivel=127
lokey=G#1
lovel=0
lpc=4p8VQWOcuMFEOtJB2n22wfmim0F/43nBYhg+QQtHBsHhKblAp5F4wH0dC0BXkHe/C5mCPoLMYT4FGmG/ABnNP8KNwL91k4I/soEWviTPur4l6YQ+HRPru+Bedb15hl09
lpc_rms=-33.36
offset=1248
pitch_keycenter=G#1
sample=Basstrombone_full_FF_G#2.opus
tune=+1
</region>

<region>
end=240000
hikey=G3
hivel=127
lokey=F#3
lovel=0
lpc=i4T9Qdrj0cI8NBtDp2sMw8dCsUIylRfCuRe1QF2p+kCEnQPB/OVEQF4p1T8W03HAw0S1PxI2XUA/1bzALh2uQPbaXcCibLc/W0MUvwuQqz8x2kXAaTimQN0QoMDCkgFA
lpc_rms=-27.01
offset=1345
pitch_keycenter=F#3
sample=Basstrombone_full_FF_F#4.opus
tune=-13
</region>

<region>
end=240000
hikey=G2
hivel=127
lokey=F#2
lovel=0
lpc=W1N3QYFIMMKlP2lC7QRdwn4BQUKOOR/Cny/0QQyus8HEbYZBKG5KwaUgE0GaFsfA60FpQL12gL9CIum/w4FpQPcEbMC2iD1AW/gGwHqy7z+qfeW/40ubP5Uovr7KwwE+
lpc_rms=-32.65
offset=13768
pitch_keycenter=F#2
sample=Basstrombone_full_FF_F#3.opus
tune=-12
</region>

<region>
end=240000
hikey=G1
hivel=127
lokey=F#1
lovel=0
lpc=K2UHQt7b4cKncihDo3Ufw4an7EIx/JjCfnctQklDocHUq8FAdbNXP9VvgcDqSLVADn+xwJYSiEDOgEDAcYpVQHGUnMBn3qtAyXJwwIXKEUD47CbA+OCJQJ/liMApXtk/
lpc_rms=-37.74
offset=11590
pitch_keycenter=F#1
sample=Basstrombone_full_FF_F#2.opus
tune=+9
</region>

<region>
end=240000
hikey=F3
hivel=127
lokey=E3
lovel=0
lpc=GcLEQerYoMKKJPdCugIBw9MV30K+P6rCFAlmQv33B8LExYpBVITswHQVKECdk96/TmkzQDQ6T8CDd+U/AkqXP3hOasAr17FAlpe8wDo2o0DV/HLApIMUQI6nr7+GIxc/
lpc_rms=-30.14
offset=941
pitch_keycenter=E3
sample=Basstrombone_full_FF_E4.opus
</region>

<region>
end=240000
hikey=F2
hivel=127
lokey=E2
lovel=0
lpc=MLqGQe5mR8JFMolCPluCwhOzU0InlxrC53LOQSjEgsHmeC9BIdkDwbocwEBWmlrAD+KUP5t/Hj/oliTAzrCEQB2eYcCpXqk/1nYdP49xg781FRG+vFHzP9mgBcCeaVY/
lpc_rms=-34.74
offset=1557
pitch_keycenter=E2
sample=Basstrombone_full_FF_E3.opus
tune=-8
</region>

<region>
end=240000
hikey=F1
hivel=127
lokey=A#0
lovel=0
lpc=GdqLQcN4SsK6FoNCHCViwrs3KUKQX+vBcgCUQZRXH8Gvrn9AtWaPve4bHsBci2dAZjhtwL7TQkCwEsS/X6NGvXSCvz9PaCfAs+ZIQFawLMDagfQ/DPqCv+raYT7JILo9
lpc_rms=-37.84
offset=1807
pitch_keycenter=E1
sample=Basstrombone_full_FF_E2.opus
tune=-6
</region>

<region>
end=240000
hikey=D#3
hivel=127
lokey=D3
lovel=0
lpc=fLTTQeq4ocJyOdJCrmShwhP8N0LIca3BSpnIQALwtT+bGw3AArS0vapggT+jGJk+i+yFv1Zloz+mFzvA21aMQPpOZcCWj4k/wFYSQG5MisBnrMY/UqhFQMVPacD4+6Y/
lpc_rms=-30.34
offset=14384
pitch_keycenter=D3
sample=Basstrombone_full_FF_D4.opus
tune=+1
</region>

<region>
end=240000
hikey=D#2
hivel=127
lokey=D2
lovel=0
lpc=jM1qQawBJMKDJFJCKUdCwrXLJ0JPiAjC6dDKQYeei8HBakFBVOUIwd5bsUDNLU7AtZrcP6kVKL8cQh2/uBjzP3eAAsA4Rcs/KKWxv/Gr2T/BCQPAAcQCQDFXu7+6awI/
lpc_rms=-35.65
offset=1518
pitch_keycenter=D2
sample=Basstrombone_full_FF_D3.opus
tune=+1
</region>

<region>
end=240000
hikey=C#3
hivel=127
lokey=C3
lovel=0
lpc=GccMQrMp3cLNCRVDv/juwjC4jkIFNQ/CIzU9QUkSLUBmg9bASWaBQPsUAsAcbAJAbnzGv0uzzr14fkA/UEb0P/7ajcCWgitAVdTlP5ilhsCmOFdALmoDwD1m1z90VAu/
lpc_rms=-29.28
offset=1337
pitch_keycenter=C3
sample=Basstrombone_full_FF_C4.opus
tune=+12
</region>

<region>
end=240000
hikey=C#2
hivel=127
lokey=C2
lovel=0
lpc=JXwvQSPh08FOx95BkDyqwVnTg0G94z/BAicBQeJapcBj2XZA/XtRwIMMKEDyDA/AZintP4oeh7+R9M09My9qP2nxj7+lSjI/MTjmPfvsT7+Jykk/ngOcvqbuBj4rcqy7
lpc_rms=-36.24
offset=12556
pitch_keycenter=C2
sample=Basstrombone_full_FF_C3.opus
tune=+2
</region>

<region>
end=240000
hikey=D#5
hivel=127
lokey=A#3
lovel=0
lpc=H0ilQRtujsLPwvBCQ1MOw4WMC0O7OO3C4YmzQgYHgMJbTy1CUxHGwRPhGkEaUq4+KcPpwKCCSUFV0nfBsaOLQTP0kMFWgWVBevzdwGr0xz84P3w+WV0Kv+NPTj8QaOS+
lpc_rms=-30.20
offset=13307
pitch_keycenter=A#3
sample=Basstrombone_full_FF_A#4.opus
tune=+7
</region>

<region>
end=240000
hikey=B2
hivel=127
lokey=A#2
lovel=0
lpc=LdGDQTEpO8KH3GpCJ8Q+wgAJBEL+PanB8ApLQd/L/cC5obdAVMiAwJQOCkBQroi/CRnhPuCHhD4NxAe/+frmPqYlSj9/4A/A55YTQB7uZb+h5iS/iekKQHCeGcDY9oU/
lpc_rms=-29.62
offset=11072
pitch_keycenter=A#2
sample=Basstrombone_full_FF_A#3.opus
tune=+8
</region>

<region>
end=240000
hikey=B1
hivel=127
lokey=A#1
lovel=0
lpc=rWydQbHYesJFk71CUFfHwkbes0Lo/5TCGppmQpm7J8IvCuVBrlaRwd8mI0H5nnnAbdAgv47xM0DY3nbATo+lQJaBtMBcjqZAqj2BwDlZNEDOpAbALR4PQJCh979dTkw/
lpc_rms=-33.95
offset=9089
pitch_keycenter=A#1
sample=Basstrombone_full_FF_A#2.opus
tune=+3
</region>
</group>

<group>
ampeg_attack=1.5
ampeg_release=0.25
group_label=PP_sustain
lpc_hicc1=42
lpc_locc1=0

<region>
hivel=127
key=G3
loop_end=185399
loop_mode=loop_continuous
loop_start=60496
loop_xfade=17299
lovel=0
lpc=tzrFQ0JpgcQk1TREKR9hwghVL0NmkyHDIA5Twt1q18FlUBpBN/f/wCZtpEGNZzlBvQDEQQLZwkHoPhLCmy3NwFnkaEB1yH/BgomYwKbxhkHVp4lAtgMnPjdFd78UJS7A
lpc_rms=-40.17
offset=12532
sample=Basstrombone_sustain_PP_G3.opus
tune=-11
</region>

<region>
hivel=127
key=G2
loop_end=185399
loop_mode=loop_continuous
loop_start=60496
loop_xfade=17299
lovel=0
lpc=UvE3Q9vd4sPiFZRD97UBwjI+rkLphIzCfox4wfrEsUBvGQbA67k6wa6mS0FCDRjBpZeoQAAPd0Fkc3nBblLdQFK5yEC4Kh3BCoYTwBqg4kDn/xXAM/gQwGDoPr+KcARA
lpc_rms=-47.23
offset=13209
sample=Basstrombone_sustain_PP_G2.opus
tune=-27
</region>

<region>
hivel=127
key=G1
loop_end=185399
loop_mode=loop_continuous
loop_start=60496
loop_xfade=17299
lovel=0
lpc=cA0HQ2hYlcPZIBhDzf8KQB3IS0IXz9nB4g10wNoMMsFRbRpAdTt3wL8hn8CSm6+/GbnwQPxnU0CfMlzAUy8WQGFePUA+w8C/BJNAwEJ2wz4XxC+/NYkJQH+bhcCE3zJA
lpc_rms=-51.76
offset=16549
sample=Basstrombone_sustain_PP_G1.opus
tune=-22
</region>

<region>
hivel=127
key=G#3
loop_end=185399
loop_mode=loop_continuous
loop_start=60496
loop_xfade=17299
lovel=0
lpc=osyGQ4ZYMMT5NfpDb/qEwj2/EUNdldLCDktpwicjjsC6K4fAI3kIQRvB3UFiTZ7BG9vnQNsi/kFr+jnBcOn3wC71jMAyDLbBV0WsvxymvEEOKIlAvl6QQfYwJsIuZoZB
lpc_rms=-43.11
offset=11038
sample=Basstrombone_sustain_PP_G#3.opus
tune=-7
</region>

<region>
hivel=127
key=G#2
loop_end=185364
loop_mode=loop_continuous
loop_start=60485
loop_xfade=17296
lovel=0
lpc=L+iDQ6GqGMTBT7FDEcYxwkc6A0NTWIXC2KqjwQgfAEHNo+jAHb2wwVZT60CrLAvBnQeGQAe+wUG6PprBL7/MPXKVekHWQPDAlhZcwK+aQ0EHmyzBI7mTQAu7gsG7f0BB
lpc_rms=-44.96
offset=11802
sample=Basstrombone_sustain_PP_G#2.opus
tune=-15
</region>

<region>
hivel=127
key=G#1
loop_end=185399
loop_mode=loop_continuous
loop_start=60496
loop_xfade=17299
lovel=0
lpc=SHMXQxVSo8M7fRhDefgBQSWabEJFxdPBQTItwMJyOsGWZwLAYJJkwILqisBWbkbAsf6oQO8En0A+R3G/tegYQE4gcr9KFYa+o9AdP+1AST9F9+u/rZhsQMhON8GE6+xA
lpc_rms=-51.19
offset=15558
sample=Basstrombone_sustain_PP_G#1.opus
tune=-12
</region>

<region>
hivel=127
key=F3
loop_end=185399
loop_mode=loop_continuous
loop_start=60496
loop_xfade=17299
lovel=0
lpc=hQyTQy+6LMT+49ZD1FyQwgZQE0MRepbCPmoowm2SxEDPp4NBlKa4wceLdUHEKKrAPZQGwThML0H36UfBV9qawErj0kGjxRfBXhY6wb0k4UEy7ji+pqm4weh23sCO/UZB
lpc_rms=-43.43
offset=13247
sample=Basstrombone_sustain_PP_F3.opus
tune=-17
</region>

<region>
hivel=127
key=F2
loop_end=185399
loop_mode=loop_continuous
loop_start=60496
loop_xfade=17299
lovel=0
lpc=kvUnQ4Mi0cO6XoxDtGnqwfYhhkIZM3XC94whwWLb6kA3Q7LAhtcgwdPZukDHltDADnVrQW6UB0Hz0l7BuawsQUyDdL/hGxTB1L+NvwIToT9ZMoU/xJ+PQCSDD8AHhu6+
lpc_rms=-47.79
offset=12644
sample=Basstrombone_sustain_PP_F2.opus
tune=-7
</region>

<region>
hivel=127
key=F1
loop_end=185399
loop_mode=loop_continuous
loop_start=60496
loop_xfade=17299
lovel=0
lpc=SAKhQhpFM8POcdJCtI81wWECuUFEyo3BKtRXQM3wFsBWzSk/xB8nwOW5+b9ligm/LGE7QCjit76P/CA+rROsPwryEkCFbcq/hwoKwKPoB8AOLRJAMzOnPwXuUr/bXLe9
lpc_rms=-55.61
offset=11021
sample=Basstrombone_sustain_PP_F1.opus
tune=+44
</region>

<region>
hivel=127
key=F#3
loop_end=185399
loop_mode=loop_continuous
loop_start=60496
loop_xfade=17299
lovel=0
lpc=tc6RQ5NeMsT9xNND8ioMwb4IGEOFaq3CCU09wiXEzcHSpdTAAf+mwUKA30FIvUq/4wiLQSHBukF3te7AXVgwwTpQbT/4AoDBVND5wE58iUHXmDK/uJkUQOGg5r/VZDW/
lpc_rms=-43.83
offset=14413
sample=Basstrombone_sustain_PP_F#3.opus
tune=-27
</region>

<region>
hivel=127
key=F#2
loop_end=185399
loop_mode=loop_continuous
loop_start=60496
loop_xfade=17299
lovel=0
lpc=l3YwQ+LL0cMc+nZDeAyywKEnjULckE/CQ56JwWK7IMANPARBacUcwfXY9L+4Me/A9s4EQY5XVUF1g1HAdg03wPw0CsBcJNDA+oaUQK/qCEHABwlAl+ovPwGOvMGXBWxB
lpc_rms=-48.55
offset=15024
sample=Basstrombone_sustain_PP_F#2.opus
tune=-19
</region>

<region>
hivel=127
key=F#1
loop_end=185399
loop_mode=loop_continuous
loop_start=60496
loop_xfade=17299
lovel=0
lpc=ZRDWQrVAgcNh+zNDCz4FwrRPBkJhFgrCr+keQUZCCcDN52g/N5gYwCp/wMDcQ7C75H7RQJ4d+z/+54jAZzxQQHRdoj9qkAS+QO/VwNFTrz/QDlxALUXqPovOK8C0R6M/
lpc_rms=-51.64
offset=9374
sample=Basstrombone_sustain_PP_F#1.opus
</region>

<region>
hivel=127
key=E3
loop_end=185399
loop_mode=loop_continuous
loop_start=60496
loop_xfade=17299
lovel=0
lpc=8JJFQwAn38NFkm1DR/O+wPF5pkJyPyXCTsyRwV87d0DTXJY/0HK+wWptoj6dqxE/hNd4v/uFYUGz4yBB45jKwOmBoD8E4mPAEwUqwTjJQUCWowxBCbKQwAX4hD8Z+qe+
lpc_rms=-48.20
offset=12334
sample=Basstrombone_sustain_PP_E3.opus
tune=-12
</region>

<region>
hivel=127
key=E2
loop_end=184991
loop_mode=loop_continuous
loop_start=60363
loop_xfade=17261
lovel=0
lpc=kvYjQ2Bb1cMKtptDuS4nwpF6hkJ+uZvCqsYgwNFxv0A5Rf/AYLY9PpJVlkDoWoHAGDuHQVnmi789WkHBcsPiQNhMsD+WKxDBe/2FOhHcjEAUAlZAaoG9P2vYEcGCNpRA
lpc_rms=-47.44
offset=11922
sample=Basstrombone_sustain_PP_E2.opus
tune=-12
</region>

<region>
hikey=E1
hivel=127
lokey=A#0
loop_end=185399
loop_mode=loop_continuous
loop_start=60496
loop_xfade=17299
lovel=0
lpc=AwDuQjbBjMP57zBD509rwX/xBUKQG/XB1q47QGACy8BE5LVAdFrLwLXycMBadO6/tEbiQEYwBUB3E7y/K+UpQPjJtj05+82/pKcewDhoGsBIFzlAbAg/QJj+OsAgMTY/
lpc_rms=-51.72
offset=15702
pitch_keycenter=E1
sample=Basstrombone_sustain_PP_E1.opus
tune=+1
</region>

<region>
hivel=127
key=D3
loop_end=185399
loop_mode=loop_continuous
loop_start=60496
loop_xfade=17299
lovel=0
lpc=LF+AQ+4vGcQWZLVD+VLqwaIq/0KMb5HC9LBpwaEnFcHFXTjB212YwWwVckEZqF7Ba6XAQMtr1UHzVSvBsZXnQAl6Yz9aFNDACYWbwK1brEAV6/LAD4J5QJc7KL7YVWE/
lpc_rms=-45.10
offset=12430
sample=Basstrombone_sustain_PP_D3.opus
tune=-27
</region>

<region>
hivel=127
key=D2
loop_end=185399
loop_mode=loop_continuous
loop_start=60496
loop_xfade=17299
lovel=0
lpc=rbEzQ00B0MO/GmFD1wJeQSoxgELhdjvC6JRlwSxXD8GnyCBAQISYwM0OOMCdqsK/gfMIQZUkv0D3w1jA1b5uQA0A67+oZY+/cRq5v1+jOcDTtQZAhqo6QF00asDpUMk/
lpc_rms=-48.92
offset=14560
sample=Basstrombone_sustain_PP_D2.opus
tune=-18
</region>

<region>
hivel=127
key=D#3
loop_end=185399
loop_mode=loop_continuous
loop_start=60496
loop_xfade=17299
lovel=0
lpc=sSd1Q9v9CcTyu49DU00RwXyk2UJ1IjfCB6+TwVlWBkBdRrfAmPX6wbcG40ABRBi9vu2wwHLqhUGAAaZAzkq3wGw2dUFcwSy/taeTwZZ7y78sD7NAdCMxwKA5E0HQ/KHA
lpc_rms=-46.27
offset=11981
sample=Basstrombone_sustain_PP_D#3.opus
tune=-32
</region>

<region>
hivel=127
key=D#2
loop_end=178815
loop_mode=loop_continuous
loop_start=58348
loop_xfade=16685
lovel=0
lpc=Ct1pQ6uBCsR6S6pDJ1kpwgTD00IJ24PCAqA3wBjORcFA8b3AfA/0wI12kMD3ehlAfEisQdVEy8B7z9nAAsZEQZdwdT9b41rATSW6wAEXPsHtLS5BJckDQcrs/MCEubU/
lpc_rms=-45.64
offset=15247
sample=Basstrombone_sustain_PP_D#2.opus
tune=+29
</region>

<region>
hikey=D#5
hivel=127
lokey=C4
loop_end=184528
loop_mode=loop_continuous
loop_start=60212
loop_xfade=17218
lovel=0
lpc=z9X/Q94HsMRE0o1EB8yLw5Y8o0NtXF3Dau/ywqdvNUESpJxBD9K8wQMqokIDQXXCWy8VwINqiUJ/LzxBBYyDwLeeIcL+6Q/CnI9BQQ95lkHAqHRBjJQhwoy/W0KXK9HB
lpc_rms=-36.23
offset=10810
sample=Basstrombone_sustain_PP_C4.opus
tune=-15
</region>

<region>
hivel=127
key=C3
loop_end=185399
loop_mode=loop_continuous
loop_start=60496
loop_xfade=17299
lovel=0
lpc=yzmOQ//IKsTg2c9DL0y+wTp56UKHpq3CxTWUwTWPmz+G96XAVEaMwekS9EBewXxAwAI+QOeXHEHg8YPBD0qTQFH+aUE2QYXARiQIwcn8CkGVVl5ARFIpwU/M/sA/QB9B
lpc_rms=-44.12
offset=10016
sample=Basstrombone_sustain_PP_C3.opus
tune=-13
</region>

<region>
hivel=127
key=C2
loop_end=185399
loop_mode=loop_continuous
loop_start=60496
loop_xfade=17299
lovel=0
lpc=R88bQ9+0rsMs2S5DUaSQQX55VUKDHArCKmvbwI35SsH4mqW/+VEfwPYllsAAuYdAA3WUQABMeUCK1gC/UNcLQO45L8At8Oq/BKCsvwwWKj9IskFAIq68vGYhlsDWujBA
lpc_rms=-50.64
offset=10924
sample=Basstrombone_sustain_PP_C2.opus
tune=-10
</region>

<region>
hivel=127
key=C#3
loop_end=185399
loop_mode=loop_continuous
loop_start=60496
loop_xfade=17299
lovel=0
lpc=26lmQ75PDMQcEq1DvcGLwenhx0K+w6bCzTCQwRDqq0C7yLdAmMyHwTrquz9acBLBtXIPQeWca0FlxVnAvEhGwN6S30AmYhTBf5L7vuCcC0GGP1HAPLo2QL3fe8HsJyNB
lpc_rms=-45.83
offset=15137
sample=Basstrombone_sustain_PP_C#3.opus
tune=-17
</region>

<region>
hivel=127
key=C#2
loop_end=185123
loop_mode=loop_continuous
loop_start=60406
loop_xfade=17273
lovel=0
lpc=8UQ6Q9Gr0MPli1BDOe2DQWsOiEJFJCPCTXa8wFM4hME9z/I/Qg6hwArBE8Ahn43AL2niQLyEWkCySAZAQsI2QP/sXT4kOZi/2KakwDhmBUAXrpY+2r1AQFlRFsHR+MJA
lpc_rms=-49.12
offset=21179
sample=Basstrombone_sustain_PP_C#2.opus
tune=-13
</region>

<region>
hivel=127
key=B3
loop_end=185399
loop_mode=loop_continuous
loop_start=60496
loop_xfade=17299
lovel=0
lpc=aF3AQ4Cqd8QHLDFE+Iz5wkdsNkOQR8HCwbWpwmtGzkHfppfB2dBDwumMXUIkl3q+YdseQZ9AC0LkCQfCQl8oQJ1wg0H/3+PB7WbzweoxDUIQUJBB08S2v6oU08FCT0FB
lpc_rms=-38.91
offset=11840
sample=Basstrombone_sustain_PP_B3.opus
tune=-15
</region>

<region>
hivel=127
key=B2
loop_end=185399
loop_mode=loop_continuous
loop_start=60496
loop_xfade=17299
lovel=0
lpc=Xu2jQ9gmQ8RzjeFDdyPdv1CbBkPABrvCzWIAwt9ch8DiAbG/vdA8wRdJZr5CLCvB+1eCQVu3bEHL1SPBnWt5QEcjqUAh0EXAaG97wNaqTEEJbDrBR/qbP3Y0gsGHwmlB
lpc_rms=-43.21
offset=12235
sample=Basstrombone_sustain_PP_B2.opus
tune=-10
</region>

<region>
hivel=127
key=B1
loop_end=185399
loop_mode=loop_continuous
loop_start=60496
loop_xfade=17299
lovel=0
lpc=BHQLQxhimcO3CRJDKEZrQedwTkKZ8cfBJW6gwG4cfMHOg2C/A9KlwDQ8HT8ltQe+H2ORQFJARD+hqjdAmUCjP3NfEUDGYUjAu8YkwPTOSL9C47Y/yeymvpTRTb/E6ZY/
lpc_rms=-51.87
offset=12893
sample=Basstrombone_sustain_PP_B1.opus
tune=-22
</region>

<region>
hivel=127
key=A3
loop_end=185399
loop_mode=loop_continuous
loop_start=60496
loop_xfade=17299
lovel=0
lpc=TpnGQ4gahsRWslpEyGOCw1NcgUOEZC/DSnNawnJpskGQxqPA+28swT9fUEIT0VzCTRmPQc3cVUJfTVDCWOOBQaHFt0ES/zvC3JSBwHbZBkK1MCHBKJQRwV4NdkHD3eHA
lpc_rms=-38.52
offset=10080
sample=Basstrombone_sustain_PP_A3.opus
tune=-12
</region>

<region>
hivel=127
key=A2
loop_end=185399
loop_mode=loop_continuous
loop_start=60496
loop_xfade=17299
lovel=0
lpc=fuI7QyrD5sMUlp5DPpaWwpjO50L3sYvC0z86wfZfW8Ex9UFB4+NTwAnagEAPt5vBdrE9QbSlgUHAmezAqRQHwNHOvEDi5gHBtY7kP0h4F0Cg4OfAkaFiQJgyHEB38IC/
lpc_rms=-46.22
offset=14932
sample=Basstrombone_sustain_PP_A2.opus
tune=-15
</region>

<region>
hivel=127
key=A1
loop_end=185399
loop_mode=loop_continuous
loop_start=60496
loop_xfade=17299
lovel=0
lpc=2m0lQ59YucNbJ0dDpfkHwcjyh0LwJh7CciW8wLsUjcCZpOM/+POywAs158BJFKfAX5sHQfCv3kDBKJy+cogfQLhs8b/avCPAeWTFPkolNsCJsls/mxCNQP39gsAzrag/
lpc_rms=-49.50
offset=18062
sample=Basstrombone_sustain_PP_A1.opus
tune=-8
</region>

<region>
hivel=127
key=A#3
loop_end=185399
loop_mode=loop_continuous
loop_start=60496
loop_xfade=17299
lovel=0
lpc=hgktQ761yMMrWnZD7GpQwkws1kKBgivCGWYgwldtj0DGgh5BUKoxwV6zQ0H03IvBDc9LP2x9wEGFlpfAYikawUBMCEEgwgXBi6q8wDMIQkFBrA2/AVSdwKpjGcBSJINA
lpc_rms=-47.97
offset=10728
sample=Basstrombone_sustain_PP_A#3.opus
tune=-6
</region>

<region>
hivel=127
key=A#2
loop_end=185399
loop_mode=loop_continuous
loop_start=60496
loop_xfade=17299
lovel=0
lpc=6+46Q4IJ0cOLB2FDinmKwd3fqkKtwynChbqPweO1v0AI1u8/PdpUwWV5qz9nwvPABl/sPWKUj0HQLt/AXW/YwJl8MUE6XhC/2FAFwUlPmUB/BR66K2yPwJCk7kCIMnfA
lpc_rms=-48.44
offset=13126
sample=Basstrombone_sustain_PP_A#2.opus
tune=-14
</region>

<region>
hivel=127
key=A#1
loop_end=185399
loop_mode=loop_continuous
loop_start=60496
loop_xfade=17299
lovel=0
lpc=QZAKQwCCmMPeIx9DKSySwNgDTUKoVtrB0rrQwOOZVsBBL0JA/Z7Yv0TV5sCSjJXAAdB4QB1mwkDVSUHAuRMuQE6jJb7Gj9O+Jyu/P8I4p76B25i/N7tBQPfI88DURohA
lpc_rms=-51.55
offset=16820
sample=Basstrombone_sustain_PP_A#1.opus
tune=-11
</region>
</group>

<group>
ampeg_attack=1.5
ampeg_release=0.25
group_label=MF_sustain
lpc_hicc1=84
lpc_locc1=43

<region>
hivel=127
key=G3
loop_end=178473
loop_mode=loop_continuous
loop_start=58236
loop_xfade=16653
lovel=0
lpc=ViNqQ0jZT8SvZoxEmkg6xJXAw0OSJJ7D/HwTQ5Af6kFlIArCbZv+QACSnT/q2f3BMazcQSqJ6kE/IprCrc/BQu2DBsP1ETNDLxwKw0VVp0GgWANCnZy9QLmi9MFh/EpB
lpc_rms=-28.14
offset=2061
sample=Basstrombone_sustain_MF_G3.opus
tune=-14
</region>

<region>
hivel=127
key=G2
loop_end=180000
loop_mode=loop_continuous
loop_start=58734
loop_xfade=16795
lovel=0
lpc=GioSQzfmA8RmYDZE3cjqw1/EPkMJZTfDHDA0Qwtbt8LC4q5CvVTnwlH5UUKDjktB1DnRwJ/THUH+vlfCUliIQspUCsLd6lRB6UqvwSxcYEGNe5dBgPzqwVo/O0GLDRi/
lpc_rms=-35.84
offset=4161
sample=Basstrombone_sustain_MF_G2.opus
tune=-18
</region>

<region>
hivel=127
key=G1
loop_end=185399
loop_mode=loop_continuous
loop_start=60496
loop_xfade=17299
lovel=0
lpc=BjolQ8T+/8OG3QhEfttuwzbf7kJJZwbDno5KQslzT8GD9ylCu/xtwp/GbkKSibvBjTHTwc53ckJdEJDCZeEtQuTR4sDsLWe+Nz/rwLESxED/90tBXYC8wblKM0GHeia/
lpc_rms=-40.40
offset=11680
sample=Basstrombone_sustain_MF_G1.opus
tune=-4
</region>

<region>
hivel=127
key=G#3
loop_end=177986
loop_mode=loop_continuous
loop_start=58077
loop_xfade=16607
lovel=0
lpc=d8n/QmFY3MOQmBFE6n3Bw4PuckPx7JHDlbiIQ7MqF8P5MpxCZuuIwsOUkEKY24rCO7YuQnNsHMG6tjXBrVgYQr2SjsKhJo1CfdEcwozr6UFBtTbCvY1KQtjS9sF5+f5A
lpc_rms=-29.25
offset=2575
sample=Basstrombone_sustain_MF_G#3.opus
tune=-6
</region>

<region>
hivel=127
key=G#2
loop_end=178932
loop_mode=loop_continuous
loop_start=58386
loop_xfade=16696
lovel=0
lpc=q8ZdQ34BOsSCRmNE84MCxIz0nkNgA7XDddWAQwAeJsNQ1jhD7WgPw7fjYEK6WZ5A2x4ewkT4PEK1wUDCdOlxQqy8icIwlG1CaeQFwkQeAj8fGiZBZl6CQYVTAcL54ltB
lpc_rms=-33.67
offset=3723
sample=Basstrombone_sustain_MF_G#2.opus
tune=-14
</region>

<region>
hivel=127
key=G#1
loop_end=179684
loop_mode=loop_continuous
loop_start=58631
loop_xfade=16766
lovel=0
lpc=YUAIQ5E94sPirgtEMp6gw9nbEkOQBf/CcSekQjueZcJhyodCk7IOwoMGwr97zlxByynHwfFG20GlrsXB4DnUQTDnmsET3JRAW1tBQRV7zsFcs25Bjw6IQa6Y3MHnkyxB
lpc_rms=-35.97
offset=4788
sample=Basstrombone_sustain_MF_G#1.opus
tune=-17
</region>

<region>
hivel=127
key=F3
loop_end=179956
loop_mode=loop_continuous
loop_start=58720
loop_xfade=16791
lovel=0
lpc=/dOAQ/3oUsSWsHlE5sISxGTQ4UNnY/DD7U11Q2fT98JFDxhDohtrwnW+tMEPp9xBDstNwmoxs0LBau7C2BABQ97ZCMMHAyJDcwQUwwPBkULqjY7Bu2XjQW6UHMKyzn9B
lpc_rms=-30.97
offset=1962
sample=Basstrombone_sustain_MF_F3.opus
tune=-16
</region>

<region>
hivel=127
key=F2
loop_end=183498
loop_mode=loop_continuous
loop_start=59875
loop_xfade=17122
lovel=0
lpc=dnXsQm8UzsMY0w5EooTTw60rcENtmifD4y0AQyJYycIrgp1Cw79lwr9IIkJoLzzBM5GzwYg+KkJpkkTCdItbQuNbccLcvTtCFErxwFvU8cG03ghCBC1DwVWhJMCmJhJA
lpc_rms=-38.11
offset=9022
sample=Basstrombone_sustain_MF_F2.opus
tune=+4
</region>

<region>
hivel=127
key=F1
loop_end=185399
loop_mode=loop_continuous
loop_start=60496
loop_xfade=17299
lovel=0
lpc=eYsNQ0643MPrP/ZDpH58w40XBUPk5c7CUz6lQX/ZQUCcnYtAh75pvzzj1UHCqfrBlDaDQC8FeEFrxvTBAhrhQYsJo8Cb/NnADiGsQIMh78APmxFBuNEHPm5rBsEInpRA
lpc_rms=-41.71
offset=14579
sample=Basstrombone_sustain_MF_F1.opus
tune=+2
</region>

<region>
hivel=127
key=F#3
loop_end=179729
loop_mode=loop_continuous
loop_start=58646
loop_xfade=16770
lovel=0
lpc=AyYSQ0y/BMS0lTxEl7MHxDh0nEM7j5LDOihMQykJK8LWNZ9Bvcg4wrr+m0GwogPCeJ1tQnzspMD0wirC6jqoQaceu8G0y2JCKacOwrODg8GSEBtCvxocwql14EGznBLB
lpc_rms=-32.27
offset=1651
sample=Basstrombone_sustain_MF_F#3.opus
tune=-13
</region>

<region>
hivel=127
key=F#2
loop_end=185149
loop_mode=loop_continuous
loop_start=60414
loop_xfade=17276
lovel=0
lpc=pEscQ3xMCsSFNzlEDefow6S6Y0MmgnLDditCQ4LNysJwWglD2z8Tw/xuVEJfNVPBLvAQQr5NIcHGCiLCJ7g3QuCY0MEDIYtBnls1wWSMksAmLktBe+Abv/+rCcFSBYBA
lpc_rms=-35.96
offset=9596
sample=Basstrombone_sustain_MF_F#2.opus
tune=-17
</region>

<region>
hivel=127
key=F#1
loop_end=185399
loop_mode=loop_continuous
loop_start=60496
loop_xfade=17299
lovel=0
lpc=eHIHQwRJ2sOzo/VD2L9Rw5MUhUL3o8nCeTlaQm+1wMAcxMlBZKfnwa2nLkEZo9E/eRmDwMF2h0AWR4nBSS3aQXyPkcHBK6dAq+GkP45ygMCyc+VAcdDowGVz9T8IACw/
lpc_rms=-42.04
offset=5657
sample=Basstrombone_sustain_MF_F#1.opus
tune=-11
</region>

<region>
hivel=127
key=E3
loop_end=179991
loop_mode=loop_continuous
loop_start=58731
loop_xfade=16794
lovel=0
lpc=p2gBQyco6MNnSiJE/czjwy8AaUMVHTXDyxsNQ90LssKqLp1CscSbwrAKiEIQvTLCE2L3QNDp3kEhzUjCxapIQtTPL8K4yFNCmAldwoo250GG0ls/m3S4wNdrj79kfN0/
lpc_rms=-33.25
offset=3462
sample=Basstrombone_sustain_MF_E3.opus
tune=-11
</region>

<region>
hivel=127
key=E2
loop_end=184858
loop_mode=loop_continuous
loop_start=60319
loop_xfade=17249
lovel=0
lpc=T9nyQjbA18McXBVET7TLw1baO0O8nBDDH2DxQrTYR8JeRgZBqNSDwZs03kHfolPB0emvQN3ApcFWuZtB2fMNQRnA98HgI9pBwa0twJkpucG6qeFBVqQ4wegEJsAi6yRA
lpc_rms=-37.61
offset=9725
sample=Basstrombone_sustain_MF_E2.opus
tune=-8
</region>

<region>
hikey=E1
hivel=127
lokey=A#0
loop_end=184330
loop_mode=loop_continuous
loop_start=60147
loop_xfade=17199
lovel=0
lpc=qcoDQwdU08MfQvNDg5pyw2m/zELbNqzCOr+uQIeDEEL98/bAftlfwMjZh0HwMNzBOtrSQJIFJEHbPE3BLsdnQZNO6MD0kTPAPAXBQAJ628DTkplAr0ZYQKr1/sDA7GlA
lpc_rms=-41.66
offset=10794
pitch_keycenter=E1
sample=Basstrombone_sustain_MF_E1.opus
tune=-15
</region>

<region>
hivel=127
key=D3
loop_end=180873
loop_mode=loop_continuous
loop_start=59019
loop_xfade=16877
lovel=0
lpc=GDoiQ9rJDsRSQz5ElyPuw0MQUUN4LyzDr9jFQn4ke8EXeUpCYdWbwredCkJdVonAGtSMwGbh8UGarlHCZ0o0Qu4CzsGNRhZB/vMiP7AjHcGyAvVBuCAmwg/eyEEgObzA
lpc_rms=-32.47
offset=2735
sample=Basstrombone_sustain_MF_D3.opus
tune=-23
</region>

<region>
hivel=127
key=D2
loop_end=185178
loop_mode=loop_continuous
loop_start=60424
loop_xfade=17278
lovel=0
lpc=TntfQ5N2RcTsa4BEZAQOxJdWMkOraUXDDYQhQ1duE8IdxzRCSXKHwiV4LEGAVMtBOOOtwbI/rUEpKlrB2ZtDQUa/C8KHUwhCvNTcQM2ND8IRVpRBmpGLQW5pzMFEsRNB
lpc_rms=-36.71
offset=11630
sample=Basstrombone_sustain_MF_D2.opus
tune=-14
</region>

<region>
hivel=127
key=D#3
loop_end=179327
loop_mode=loop_continuous
loop_start=58514
loop_xfade=16732
lovel=0
lpc=A7dNQxPrMMRAoG5Et5wvxI3M5UMNUb3DT0SDQ54mC8MfJZBCIYuDwo1moEI2Cm/C4bDhQaT1WkDIYRrCfOVpQtk0msIsdKJChjwLwi0cjMElwVo/ljyAQkknmcKLO+NB
lpc_rms=-29.28
offset=5307
sample=Basstrombone_sustain_MF_D#3.opus
tune=-18
</region>

<region>
hivel=127
key=D#2
loop_end=179399
loop_mode=loop_continuous
loop_start=58538
loop_xfade=16739
lovel=0
lpc=fHAFQ0Zr8cOlODFEurkPxJ6OtkPUcYXDDCU1Q4Y1vcJKalVChyoZwspJiUFWq51BAoxFwi4lQkI5Me/BB1+FQdr3e8Gbl1ZBjxDoQPBm+8GengdC4IeLwa/DRkDf/fY+
lpc_rms=-35.85
offset=11579
sample=Basstrombone_sustain_MF_D#2.opus
</region>

<region>
hikey=D#5
hivel=127
lokey=C4
loop_end=179511
loop_mode=loop_continuous
loop_start=58574
loop_xfade=16750
lovel=0
lpc=9kwXQ/m3/sNqECVE1tfkw1TTlEPdWXbDXk8aQxholcLV8u9BEjmmwcxReUEoyuZBuz3qwQh3akFtu5jCCnztQlmMxMKIEqJCbw07whvKDMAH+zZBxiEGQe6EhsEi0fBA
lpc_rms=-29.31
offset=3392
sample=Basstrombone_sustain_MF_C4.opus
tune=+9
</region>

<region>
hivel=127
key=C3
loop_end=178025
loop_mode=loop_continuous
loop_start=58090
loop_xfade=16611
lovel=0
lpc=nJxWQ2TrP8TDy4NEwloyxPyOtkNhnJDDxjAgQ4+B18FpMTFC4v9+wqC030ECNdXA0OMCwUUc80HH10HCIjh1QuCufcKBDi1CbBmkwEXQwMFMQqpBMe5KQaLTAcIQfXBB
lpc_rms=-29.73
offset=3654
sample=Basstrombone_sustain_MF_C3.opus
tune=-6
</region>

<region>
hivel=127
key=C2
loop_end=184597
loop_mode=loop_continuous
loop_start=60234
loop_xfade=17224
lovel=0
lpc=saQNQ+/TBsS5jVJEFwssxJ/ppEPuPw7Dr82/Ql/EMcIqudRAvIF3wQfOp0EiaDQ/BwuowX9R10ELROLBpy7/QaX6CsK8TdVBAUy/wMQrTcGv101BsPmoQJxCbMGI3s9A
lpc_rms=-37.16
offset=11671
sample=Basstrombone_sustain_MF_C2.opus
tune=-2
</region>

<region>
hivel=127
key=C#3
loop_end=178361
loop_mode=loop_continuous
loop_start=58199
loop_xfade=16642
lovel=0
lpc=gZ4sQ9qIIMT9pGtEH+EuxEf5p0P370XDbXgKQyPUrcI1qppCTtGowuqIq0Ia1D3Cz7NNwdhKCULG/g3Cj4A6Qm9iU8KcKidC8B3WwN6s+MGs/SZC+0UAwsnziUGYYZTA
lpc_rms=-32.20
offset=2498
sample=Basstrombone_sustain_MF_C#3.opus
tune=-16
</region>

<region>
hivel=127
key=C#2
loop_end=185229
loop_mode=loop_continuous
loop_start=60440
loop_xfade=17283
lovel=0
lpc=mCIXQxFMBsRw+DJEL+vSwz7jBUOZ3MnCB02KQmoPccGdmQ1CvsNJwm+HvEEzsBBBZ9XkwdQWhEEzdL5ABcZxwGuWNcHWSItBcoDmvwHRrMEye2pB0QRHQYVQjcG4trNA
lpc_rms=-38.72
offset=13090
sample=Basstrombone_sustain_MF_C#2.opus
tune=-11
</region>

<region>
hivel=127
key=B3
loop_end=179388
loop_mode=loop_continuous
loop_start=58535
loop_xfade=16738
lovel=0
lpc=+tT2Qs9k4MMnZCtEh5obxNQY30ONeI3DbPb/QmiEB8L+SY5Bj14sws1SgUJIZl3CedzzQcJ7C0GT0GvCVbWvQgwDyMIJdMVCnSlswpw62j+qRAhCI2kNwkJqekH8iwfA
lpc_rms=-29.79
offset=3603
sample=Basstrombone_sustain_MF_B3.opus
tune=-15
</region>

<region>
hivel=127
key=B2
loop_end=179683
loop_mode=loop_continuous
loop_start=58631
loop_xfade=16766
lovel=0
lpc=ow4WQ8pHCcQ6WkRENkIKxNj9hENTzVbD7ycvQ9uMnsJvVjxCEhUGwisHbcGe7yVC/rnzwcm+x0FvlgDCC5wSQhSDOsLWA1hC4uf1weLpxcDD0qBBNZBOwYhmiECd7g2/
lpc_rms=-33.76
offset=3023
sample=Basstrombone_sustain_MF_B2.opus
tune=-20
</region>

<region>
hivel=127
key=B1
loop_end=185399
loop_mode=loop_continuous
loop_start=60496
loop_xfade=17299
lovel=0
lpc=Tv70QpOV5MNpbi1ETmQIxLq0fENZTNPC+ghvQjKJjMGmYAPAE3s1weAeikF1s0K/j6ozwR/5u0BFCTBA7BNPwHFzFcCQcANBAA3XwD+3w8A53ItB0hNTwfiDPUDoNN4+
lpc_rms=-40.40
offset=11211
sample=Basstrombone_sustain_MF_B1.opus
tune=-29
</region>

<region>
hivel=127
key=A3
loop_end=178066
loop_mode=loop_continuous
loop_start=58103
loop_xfade=16615
lovel=0
lpc=210jQ1EUDcSdYkBEPBsWxGF16kMPMtnDGXWYQ+PqNsPyKvVCS8qOwoNlMkJado3BvbH5wC51DUEj5P/B6tmKQg4Qu8IPjAJDn24Fwz8Ik0IlNTPCZPeEQlm2Y8LOZI5B
lpc_rms=-27.20
offset=4106
sample=Basstrombone_sustain_MF_A3.opus
tune=-5
</region>

<region>
hivel=127
key=A2
loop_end=179902
loop_mode=loop_continuous
loop_start=58702
loop_xfade=16786
lovel=0
lpc=UhkdQ03gDsRFKkpEVVEMxMd6gUNmrkfDkfQ4Q3fj/cLed8FCHnKkwuDRR0IEXnnB5ywHP1ukgEHFy0bCFZV/QqiMN8I1s+RBXxaIwSALOr+UoYFBO1SOwR4KDkE0m9O/
lpc_rms=-32.44
offset=3913
sample=Basstrombone_sustain_MF_A2.opus
tune=-16
</region>

<region>
hivel=127
key=A1
loop_end=178602
loop_mode=loop_continuous
loop_start=58278
loop_xfade=16665
lovel=0
lpc=e0QRQ3VT6MNYYwBEmIJew1zu5UJAGyzDmHTZQj2ClsJqCNJCJiiJwnzYAUJSO73B7HtwvustjEED5+jB6tYBQlTOM8Ek6yDBXwaLQZkmMsGMXozAj3E/QdK8CMHf4TBA
lpc_rms=-37.17
offset=3255
sample=Basstrombone_sustain_MF_A1.opus
tune=-17
</region>

<region>
hivel=127
key=A#3
loop_end=178794
loop_mode=loop_continuous
loop_start=58341
loop_xfade=16683
lovel=0
lpc=QptDQ0XRKMSE5WhE2S45xK3fA0QOt9HDt92cQ3erTMPMkYdCexGjQZFiCsKeTD5CyRiEwiQnzEKXqvrClxDbQtbU6MIIye5CHldLwibFjMEn1Nw/mio6QpgJNsLObV9B
lpc_rms=-26.90
offset=6131
sample=Basstrombone_sustain_MF_A#3.opus
tune=-8
</region>

<region>
hivel=127
key=A#2
loop_end=180291
loop_mode=loop_continuous
loop_start=58829
loop_xfade=16822
lovel=0
lpc=D8kvQ97mDMRoXSNEBI/Aw0OamkPw8K3DOZJoQ+fHE8Pvw/xCpbmLwr0IcUEgVp5BhQwbwmdWQUJKgFnCkx5HQlhiVsLMjHdCs04GwuB2hcFiVdVB10PQQJ3StMGNaBFB
lpc_rms=-34.44
offset=2086
sample=Basstrombone_sustain_MF_A#2.opus
tune=-6
</region>

<region>
hivel=127
key=A#1
loop_end=184287
loop_mode=loop_continuous
loop_start=60133
loop_xfade=17195
lovel=0
lpc=u/wbQ/Ou7sN2UftDXrxgw00NGkMbEkLDxKbIQr5hOMI4LExCkgbawWKfJ0HgHeVAI/SBwaZ/4j9x3znBssoIQuQVDcIhB8tB2CjGP39A08F4slpB6oEvQTLKTsFnDHNA
lpc_rms=-36.73
offset=12011
sample=Basstrombone_sustain_MF_A#1.opus
tune=-10
</region>
</group>

<group>
ampeg_attack=1.5
ampeg_release=0.25
group_label=FF_sustain
lpc_hicc1=127
lpc_locc1=85

<region>
hivel=127
key=G3
loop_end=179499
loop_mode=loop_continuous
loop_start=58571
loop_xfade=16748
lovel=0
lpc=kBVjQlPxVcO7cbtDaiLbw3x80EOCpLDDCZ+IQ8y8SMMM0RdDUDD3wueT0UK10qvCTAd5QmEZFMLQIzRBJ795QexgEcJ58jNCs18qwg2TCUJ58MfB9/SEQQdkEcGQ0i9A
lpc_rms=-24.80
offset=3743
sample=Basstrombone_sustain_FF_G3.opus
tune=-13
</region>

<region>
hivel=127
key=G2
loop_end=179222
loop_mode=loop_continuous
loop_start=58480
loop_xfade=16723
lovel=0
lpc=Y8QlQm/3GMNxp4RDOv2Zw4UzkEPfKG7DkvYzQ4UmAcOpEbZChMl9wnz8K0IxYc/BDss7QWMtQ8AC8Ki/AABNQK/IgMDDmOxAvsU5wefgM0HfDcrAZkc2QHndAMDjG3A/
lpc_rms=-29.34
offset=2409
sample=Basstrombone_sustain_FF_G2.opus
tune=-23
</region>

<region>
hivel=127
key=G1
loop_end=182439
loop_mode=loop_continuous
loop_start=59530
loop_xfade=17023
lovel=0
lpc=x73gQXZsu8ILgg9DOJYSw/1k/ULIytHCZKWqQmQ2i8L0oGxCoPdMwjzwKkLNyQXC36y/QWtXdsHxiA1BxsVCwKoP9r8Yr5lADWu4wKentkC65JvAKnlrQFpiCcCCZSo/
lpc_rms=-34.74
offset=5727
sample=Basstrombone_sustain_FF_G1.opus
tune=-16
</region>

<region>
hivel=127
key=G#3
loop_end=182382
loop_mode=loop_continuous
loop_start=59512
loop_xfade=17017
lovel=0
lpc=NdtgQhinXMOaD8pDe/7tw+MS0UNEYpPDFQcwQ6wj0sIjRatC7S27wvFfzUIlFbzCPyqEQpDnAMI19CE/Xfu3QV6r2sFJqThBKCAOQR8FzMF2LBBCPk76wYkqe0EOT2zA
lpc_rms=-25.60
offset=1780
sample=Basstrombone_sustain_FF_G#3.opus
tune=-16
</region>

<region>
hivel=127
key=G#2
loop_end=181253
loop_mode=loop_continuous
loop_start=59143
loop_xfade=16912
lovel=0
lpc=cjIEQkNk6sIr4z5DvBtJw4RIJ0PcyPfCm1GqQhd1XMLEAxJCHLrewQNhu0Fr6JXBxWNkQeZKNMHPHPJA77n7v8NgCcDRei1AVzWrv6Z8kL8CFF1AwXMkwIWu0j7uJyE+
lpc_rms=-31.81
offset=2397
sample=Basstrombone_sustain_FF_G#2.opus
tune=-11
</region>

<region>
hivel=127
key=G#1
loop_end=155485
loop_mode=loop_continuous
loop_start=50735
loop_xfade=14508
lovel=0
lpc=ebytQbb0jsJT6t1C/T/swmw410JeT7nCKZWZQsmwd8Lc50hC0bYjwsL/AkI6Lc7BZFGgQeUIdsF2jzFBIwrGwA15wD/OkwFAgSiEwNjNo0AiSp7AlSeJQPL6MsBmCGs/
lpc_rms=-33.97
offset=3948
sample=Basstrombone_sustain_FF_G#1.opus
tune=-16
</region>

<region>
hivel=127
key=F3
loop_end=178859
loop_mode=loop_continuous
loop_start=58362
loop_xfade=16689
lovel=0
lpc=6ORjQsdkTMMHCaRD13uiw0IsdUNzdCjD5LLlQqQno8IQl49Cy0aXwimSi0IK1z3CGgu9QV/GBcH1WGvApWWQQTb64sEQffdBfQLZwY0/k0GZgQvB/n5AQBieiL9Q4EI/
lpc_rms=-25.98
offset=3975
sample=Basstrombone_sustain_FF_F3.opus
tune=-21
</region>

<region>
hivel=127
key=F2
loop_end=178355
loop_mode=loop_continuous
loop_start=58197
loop_xfade=16642
lovel=0
lpc=WHCoQdO6icIHBtVC6aThwljrykKQ7KzCM3aTQpAFfcLsa1pCbvI/wk1fJkJ37wfC2J/UQeW+ocGro2xB2gMPwdpuUECoplg+lTucv3r3UD8RMIE+eIyuvlqWA7yOZzE9
lpc_rms=-32.99
offset=3726
sample=Basstrombone_sustain_FF_F2.opus
tune=-6
</region>

<region>
hivel=127
key=F1
loop_end=185399
loop_mode=loop_continuous
loop_start=60496
loop_xfade=17299
lovel=0
lpc=RzVCQYE9CMI3kjNCJxIqwrTcFEJ17P7ByejXQcvMtcFryZpBmfWBwVC3U0H9qijB4Vn/QEjJtMAqc2tAqCaYv1wNkr+PthZAb6UbwCeDB0BaEMy/xFaRP8ujSr8Hm74+
lpc_rms=-37.34
offset=8164
sample=Basstrombone_sustain_FF_F1.opus
tune=+7
</region>

<region>
hivel=127
key=F#3
loop_end=179199
loop_mode=loop_continuous
loop_start=58473
loop_xfade=16720
lovel=0
lpc=jw0MQosHBcPsjnRDJFyaw6e6nUPvuYvDdtxfQ+XnK8N5dAdDj9TjwtMtykL+CbTCkuaSQoRdQsJWIqBBrOCGQAsWgcE0KUZBeB+jPkAPPMH3L3tB1v48wTVKrUCW95m/
lpc_rms=-28.30
offset=1883
sample=Basstrombone_sustain_FF_F#3.opus
tune=-12
</region>

<region>
hivel=127
key=F#2
loop_end=180858
loop_mode=loop_continuous
loop_start=59014
loop_xfade=16875
lovel=0
lpc=UuS5QfdsocJpswZDeRUbwxEuFUMNggHD0ZTQQsOEosK3qYBCtItPwuYJKkKVhQ/CFhD4QQG40cHpfKJBH2dTwRv6tUD3THw/You7wJqaBkGmTwPBQxq/QDwyNMDCcSw/
lpc_rms=-32.16
offset=1654
sample=Basstrombone_sustain_FF_F#2.opus
tune=-15
</region>

<region>
hivel=127
key=F#1
loop_end=177863
loop_mode=loop_continuous
loop_start=58037
loop_xfade=16596
lovel=0
lpc=ldfKQUxhpsKNzPpC6Ar9wpcV10J+JazCKNmGQtkTVMK8Ei1CAcwRwtZ570HJMrfBV817QQ0cE8FT0nVAli1dP2C7g8DOT6JAsd2UwKokZkCgvBHA6BnePyO3sL9kMQs/
lpc_rms=-36.69
offset=3307
sample=Basstrombone_sustain_FF_F#1.opus
tune=-14
</region>

<region>
hivel=127
key=E3
loop_end=180188
loop_mode=loop_continuous
loop_start=58795
loop_xfade=16813
lovel=0
lpc=hkcMQnip/cJrOlRDfDZow2GgS0OmbyHDUPPxQrWWsMIrxYlCUPBqwnhePkJ1mwvCUGHGQcndgcFn9gZBtcTIvxDemMC+9BRBe3cMwbXmsj/HrQBBZq0gwRAUnEARKl+/
lpc_rms=-28.28
offset=4022
sample=Basstrombone_sustain_FF_E3.opus
tune=-17
</region>

<region>
hivel=127
key=E2
loop_end=176394
loop_mode=loop_continuous
loop_start=57557
loop_xfade=16459
lovel=0
lpc=rzHgQTZAycKpOixD7V1Iw34GP0MbPSPDAasBQ4YhxML1T5RC299rwvhdP0IWkBfCC0bmQVzSm8HatClBwAUVwNdmn8CGKChBa/BdwUFgVkHFiRLBnWOoQJWgRcBPSYs/
lpc_rms=-35.26
offset=2185
sample=Basstrombone_sustain_FF_E2.opus
tune=-18
</region>

<region>
hikey=E1
hivel=127
lokey=A#0
loop_end=185399
loop_mode=loop_continuous
loop_start=60496
loop_xfade=17299
lovel=0
lpc=JUZlQb8sIsKhS1FC7507wnr+GUKdqf3BK1jVQdLat8HdWqFBVTiKwUi1YUGZuTDBeJgFQVGfw8AKkIZAuHnov1qBp75MWJo/dMWTvySTLj/hFSC+SxRpPnuT5b4AGqA+
lpc_rms=-38.19
offset=9047
pitch_keycenter=E1
sample=Basstrombone_sustain_FF_E1.opus
tune=-18
</region>

<region>
hivel=127
key=D3
loop_end=181302
loop_mode=loop_continuous
loop_start=59159
loop_xfade=16917
lovel=0
lpc=FoUWQluhB8MM3GFDqHt3w1TcWUOjQyrDOOD1Qor7rcIy34NCqPxdwoQNR0IMgCzC1tIDQgFLt8Hwe1FBpj/nPmolVcGDwJdBPTSPwR6OUkH14w/BRfr4QDrGs8B9ju4/
lpc_rms=-28.52
offset=2010
sample=Basstrombone_sustain_FF_D3.opus
tune=-11
</region>

<region>
hivel=127
key=D2
loop_end=185399
loop_mode=loop_continuous
loop_start=60496
loop_xfade=17299
lovel=0
lpc=OmXdQW23xcJyJSlDRqZFwy7nPEPeayHD0jEAQ/rxwsL5yJJCOnxgwowwL0KSjwrC60/eQfHAssG1eohBKjkwwbzTs0BAMwfAKlVqvon8PT849qQ8pSmRPmlQLL+gvIg+
lpc_rms=-35.75
offset=8808
sample=Basstrombone_sustain_FF_D2.opus
tune=-22
</region>

<region>
hivel=127
key=D#3
loop_end=180916
loop_mode=loop_continuous
loop_start=59033
loop_xfade=16881
lovel=0
lpc=ecRPQl7JPMOIn5tDY8Gjw5iohkNG3UHD7Nn8QvInmsKcvkZCvyokwn3wIUIoLQ7CfFmyQY6VOsCb1ZrBRkAVQjdMIMII7e9BSymcwS13KUFKoFG/dPFbwHEC4z9oCcO9
lpc_rms=-26.60
offset=3255
sample=Basstrombone_sustain_FF_D#3.opus
tune=-23
</region>

<region>
hivel=127
key=D#2
loop_end=179315
loop_mode=loop_continuous
loop_start=58511
loop_xfade=16731
lovel=0
lpc=mBjrQfzh08IzYTVDmnVQw0weP0P8/RfDArXcQlpVmcJlKVhCrJAjwiZtA0I54dfBUP+uQc6rf8ECCw5BB7O6vwliacDtaq1ABs6rwIKlYkCOYC8++2chwNl9+D8lYu2+
lpc_rms=-36.00
offset=7004
sample=Basstrombone_sustain_FF_D#2.opus
tune=-11
</region>

<region>
hikey=D#5
hivel=127
lokey=C4
loop_end=179814
loop_mode=loop_continuous
loop_start=58673
loop_xfade=16778
lovel=0
lpc=KQjJQQI5l8LA4NRCfp/YwjM0yEINiq7C2ESUQsIHgsJCdWxCviVRwpKTNUK7exTCuanXQXxzm8FshHNBzJs/wbhkCUGKKtzAunH/QCYT7sBGuktA7cZvPxiSNr8GzZG+
lpc_rms=-21.94
offset=2924
sample=Basstrombone_sustain_FF_C4.opus
tune=-10
</region>

<region>
hivel=127
key=C3
loop_end=180809
loop_mode=loop_continuous
loop_start=58998
loop_xfade=16871
lovel=0
lpc=ahgfQo8zDsPRkWxDJZyDwz5Zc0OFHVLDYG0uQ8IxD8PE2/ZC/W3fwm7/xUKUfKDC4w1rQmzUIsIdGN1BsCeFweFh0UBVpLo/d4PqwGe5OEFrYlvBFzY8QYHds8BucJA/
lpc_rms=-28.27
offset=2169
sample=Basstrombone_sustain_FF_C3.opus
tune=-8
</region>

<region>
hivel=127
key=C2
loop_end=183923
loop_mode=loop_continuous
loop_start=60014
loop_xfade=17161
lovel=0
lpc=ftOnQZmrh8IqONFC2STjwuWM1EJA/bbCBVSUQjc3a8LUbz9Cqisgwj3PBEI1stXBaJukQSNsbMH1+xRBhpWAwMyetb7FqE9ACkChwERwvkCAdLzAdVGzQJUtgMCv/68/
lpc_rms=-36.47
offset=6717
sample=Basstrombone_sustain_FF_C2.opus
tune=-26
</region>

<region>
hivel=127
key=C#3
loop_end=179764
loop_mode=loop_continuous
loop_start=58657
loop_xfade=16773
lovel=0
lpc=oPEKQgCx98LQqE1DU0tlw5p3VEMB2DTDh9oRQ1cu5cL8KrZCwrmXwhHqfkLIIEnCOesSQpZpwsFVqkZB29IxwG/YBcC9xT1AlIAkwI8fjz519ExAgGw9wCo2Ij8CfDE+
lpc_rms=-29.27
offset=2519
sample=Basstrombone_sustain_FF_C#3.opus
tune=-19
</region>

<region>
hivel=127
key=C#2
loop_end=185399
loop_mode=loop_continuous
loop_start=60496
loop_xfade=17299
lovel=0
lpc=K4hkQfxhLcKpXn1CANKFwj/4e0JRqV7Cs3g8Qn4lHcIiBgRCkfvewWzpuUHDSZjB+hB0QXDTPMEO7wRBo/edwGijHkAXskO//mEHv8zohT/MPoC/oi6wPxBIib9KLGo+
lpc_rms=-35.59
offset=8653
sample=Basstrombone_sustain_FF_C#2.opus
tune=-21
</region>

<region>
hivel=127
key=B3
loop_end=179552
loop_mode=loop_continuous
loop_start=58588
loop_xfade=16753
lovel=0
lpc=keWVQcv8d8K4+sVClNHewuL+1EK8vrXCLGOOQmFTUsIldxlCn2/zwenPxkGTBqDBvEiIQahFZ8E+cFZBIQFmwZrZb0GCT3DB4sdYQQdJG8HtMq5Aecj5v9Dd+z1VPCs+
lpc_rms=-26.95
offset=3182
sample=Basstrombone_sustain_FF_B3.opus
tune=-13
</region>

<region>
hivel=127
key=B2
loop_end=179819
loop_mode=loop_continuous
loop_start=58675
loop_xfade=16778
lovel=0
lpc=qZvrQSaD0sIw5TBDOjVGw4O/M0O2ghLDLPTfQsenosKouWpC8gI4woCjHUJr5QfCmSDgQfSWrMFEPXpBM+wewfheqUDYfE7AhkocQGgilr8PeQi/Px8SQP/UFsCq0mw/
lpc_rms=-31.84
offset=2029
sample=Basstrombone_sustain_FF_B2.opus
tune=-16
</region>

<region>
hivel=127
key=B1
loop_end=185170
loop_mode=loop_continuous
loop_start=60421
loop_xfade=17278
lovel=0
lpc=FSZQQdVhG8L+d2BCvaVpwvs6WEJ9MDzCEDscQmB1/cHPvdRBzSe6wdzzpEHGo4/BT75uQSI2O8EX2gRB4GiZwAY/G0AXIoy/OWz2PqzWiL7G0PC8wNNQPyd3jr/vK/c+
lpc_rms=-39.32
offset=10493
sample=Basstrombone_sustain_FF_B1.opus
tune=-20
</region>

<region>
hivel=127
key=A3
loop_end=180904
loop_mode=loop_continuous
loop_start=59029
loop_xfade=16880
lovel=0
lpc=2zwCQox76cIzvj5DQ89Dw5adFkOOl8TCt7NpQoUlCcI31dJBXS/mwZUD5UGFEKzBSvF3QfIfY8HU9TdB02sKwBIKEMFvx2RBB3xNwacS80AwXP2/Wz9XviaIDr8FGSA/
lpc_rms=-27.74
offset=2004
sample=Basstrombone_sustain_FF_A3.opus
tune=-18
</region>

<region>
hivel=127
key=A2
loop_end=181173
loop_mode=loop_continuous
loop_start=59117
loop_xfade=16905
lovel=0
lpc=LbceQot0FMPSnoFDXwOUw19ihEPH5FDD5mYfQ/b99cJ7b79CeN+VwoujakIiDDLCfXv6QWEJosG5KC9B9Hzqv91FhsCjjbZAVzC+wBN3v0DUO2/AvSybP14QBL9LmKc+
lpc_rms=-30.14
offset=2990
sample=Basstrombone_sustain_FF_A2.opus
tune=-11
</region>

<region>
hivel=127
key=A1
loop_end=166685
loop_mode=loop_continuous
loop_start=54389
loop_xfade=15553
lovel=0
lpc=mW6PQVGBa8LBCbpCSV/Nwm92wkKsVKvCksqPQleda8L5RURC6conwnYLD0Lz5+7B93TCQbXZmcGJ22ZBcSwUwcx8lECAF6S/E9Vcv5wwBECfFhXAor0ZQP7Z7b/lCSQ/
lpc_rms=-34.58
offset=3563
sample=Basstrombone_sustain_FF_A1.opus
tune=-18
</region>

<region>
hivel=127
key=A#3
loop_end=181236
loop_mode=loop_continuous
loop_start=59138
loop_xfade=16910
lovel=0
lpc=Nm3XQeLetcK5uw5Dq88TwyVk9kIWg7bCCHd+Qqj3L8JS8/5BSUrawVC03UE/NdXBxByiQe6OMcGpqOc/4W3EQNSgH8ExvyhBlcMVwZVS70AH777AqQWIQHNSA8AdyD8/
lpc_rms=-26.86
offset=4706
sample=Basstrombone_sustain_FF_A#3.opus
tune=-10
</region>

<region>
hivel=127
key=A#2
loop_end=180632
loop_mode=loop_continuous
loop_start=58940
loop_xfade=16854
lovel=0
lpc=VAEzQnANIsOa4IRDND6Jw/0JWkOYgRjDlETHQsA3g8IthlFCRyZMwhzIQEIQyBbCXUC1QZOdD8F12Tc/6SInQB4zYMBvn9BAi7RSwcK6kkE8OIzBNMpHQS4hv8Dbdbs/
lpc_rms=-29.48
offset=2051
sample=Basstrombone_sustain_FF_A#2.opus
tune=-17
</region>

<region>
hivel=127
key=A#1
loop_end=170544
loop_mode=loop_continuous
loop_start=55649
loop_xfade=15913
lovel=0
lpc=PiMWQln0BcP1cFpDTC5kwwIWPEM4ZA3DgDbMQi14jMJLTj1C4BQBwnOLpkH7dE3BS2gtQc6wSsFFU1JBo10IwcdCA75QEwlBZm5NwRUWSUHM6xzB4UHdQBuQaMAj6nU/
lpc_rms=-33.20
offset=3485
sample=Basstrombone_sustain_FF_A#1.opus
tune=-11
</region>
</group>